
<svg xmlns="http://www.w3.org/2000/svg" xmlns:xlink="http://www.w3.org/1999/xlink" viewBox="0 0 1252 988"
  fill-rule="evenodd">
<g>
<path style="stroke:none;" d="M 168 677.64C 174.999 677.89 182.001 678.14 189 678.39C 188.75 686.389 188.5 694.391 188.25 702.39C 186.25 702.39 184.25 702.39 182.25 702.39C 182.25 696.39 182.25 690.389 182.25 684.39C 177.501 684.39 172.749 684.39 168 684.39C 167.75 686.889 167.5 689.39 167.25 691.89C 165.25 691.89 163.25 691.89 161.25 691.89C 161.25 689.39 161.25 686.889 161.25 684.39C 132.003 684.39 102.747 684.39 73.5 684.39C 73.5 686.889 73.5 689.39 73.5 691.89C 71.2502 691.64 68.9998 691.39 66.75 691.14C 66.75 688.89 66.75 686.64 66.75 684.39C 62.0005 684.39 57.2495 684.39 52.5 684.39C 52.5 690.389 52.5 696.39 52.5 702.39C 48.949 702.433 47.5039 702.292 45.75 700.89C 45.75 693.641 45.75 686.389 45.75 679.14C 46 678.64 46.25 678.14 46.5 677.64C 53.2493 677.64 60.0007 677.64 66.75 677.64C 67 670.641 67.25 663.639 67.5 656.64C 100.997 656.89 134.503 657.14 168 657.39C 168 664.139 168 670.891 168 677.64z"/>
<path style="stroke:none;" d="M 73.5 663.39C 73.5 668.139 73.5 672.89 73.5 677.64C 102.747 677.64 132.003 677.64 161.25 677.64C 161.25 672.89 161.25 668.139 161.25 663.39C 132.003 663.39 102.747 663.39 73.5 663.39z"/>
<path style="stroke:none;" d="M 126 772.89C 116.099 772.686 100.237 771.025 93 774.39C 90.2503 779.639 87.4997 784.89 84.75 790.14C 74.0011 789.89 63.2489 789.64 52.5 789.39C 48.7504 779.391 44.9996 769.389 41.25 759.39C 40.7501 759.64 40.25 759.89 39.75 760.14C 32.5007 770.139 25.2493 780.141 18 790.14C 12.0006 790.14 5.9994 790.14 0 790.14C 0.7499 789.39 1.5001 788.64 2.25 787.89C 13.4989 774.141 24.7511 760.388 36 746.64C 29.7506 733.891 23.4994 721.138 17.25 708.39C 23.2494 708.39 29.2506 708.39 35.25 708.39C 38.7497 717.139 42.2504 725.891 45.75 734.64C 46 734.14 46.25 733.64 46.5 733.14C 52.9994 724.891 59.5006 716.639 66 708.39C 71.9994 708.39 78.0006 708.39 84 708.39C 73.2511 720.888 62.4989 733.391 51.75 745.89C 57.7494 760.138 63.7506 774.391 69.75 788.64C 70 788.14 70.25 787.64 70.5 787.14C 85.7485 760.892 101.002 734.637 116.25 708.39C 120.75 708.39 125.251 708.39 129.75 708.39C 134.749 735.637 139.751 762.892 144.75 790.14C 139.251 789.89 133.749 789.64 128.25 789.39C 127.5 783.89 126.75 778.389 126 772.89z"/>
<path style="stroke:none;" d="M 162.75 708.39C 165.25 728.138 167.75 747.892 170.25 767.64C 170.5 767.14 170.75 766.64 171 766.14C 180.999 746.892 191.001 727.638 201 708.39C 205.999 708.64 211.001 708.89 216 709.14C 201.751 736.137 187.499 763.142 173.25 790.14C 168.501 790.14 163.749 790.14 159 790.14C 155 762.892 151 735.637 147 708.39C 152.249 708.39 157.501 708.39 162.75 708.39z"/>
<path style="stroke:none;" d="M 219.75 708.39C 224.749 708.39 229.751 708.39 234.75 708.39C 229.501 735.637 224.249 762.892 219 790.14C 214.001 790.14 208.999 790.14 204 790.14C 204 789.39 204 788.64 204 787.89C 209.249 761.392 214.501 734.887 219.75 708.39z"/>
<path style="stroke:none;" d="M 123.75 759.39C 122.25 748.641 120.75 737.889 119.25 727.14C 119 727.64 118.75 728.14 118.5 728.64C 113.001 738.889 107.499 749.141 102 759.39C 109.249 759.39 116.501 759.39 123.75 759.39z"/>
<path style="stroke:none;" d="M 52.5 796.14C 52.5 802.139 52.5 808.14 52.5 814.14C 57.2495 814.14 62.0005 814.14 66.75 814.14C 67 809.89 67.25 805.639 67.5 801.39C 69.4998 801.39 71.5002 801.39 73.5 801.39C 73.5 805.639 73.5 809.89 73.5 814.14C 102.747 814.14 132.003 814.14 161.25 814.14C 161.25 809.89 161.25 805.639 161.25 801.39C 163.5 801.64 165.75 801.89 168 802.14C 168 806.139 168 810.14 168 814.14C 172.749 814.14 177.501 814.14 182.25 814.14C 182.25 808.14 182.25 802.139 182.25 796.14C 184.5 796.39 186.75 796.64 189 796.89C 189 804.639 189 812.391 189 820.14C 182.001 820.14 174.999 820.14 168 820.14C 167.75 827.389 167.5 834.64 167.25 841.89C 133.753 841.64 100.247 841.39 66.75 841.14C 66.75 834.14 66.75 827.139 66.75 820.14C 59.7507 820.14 52.7493 820.14 45.75 820.14C 46 812.141 46.25 804.139 46.5 796.14C 48.4998 796.14 50.5002 796.14 52.5 796.14z"/>
<path style="stroke:none;" d="M 73.5 820.14C 73.5 825.139 73.5 830.14 73.5 835.14C 102.747 835.14 132.003 835.14 161.25 835.14C 161.25 830.14 161.25 825.139 161.25 820.14C 132.003 820.14 102.747 820.14 73.5 820.14z"/>
</g>
</svg>