<svg height="1024" node-id="1" sillyvg="true" template-height="1024" template-width="1024" version="1.1" viewBox="0 0 1024 1024" width="1024" xmlns="http://www.w3.org/2000/svg" xmlns:xlink="http://www.w3.org/1999/xlink"><defs node-id="49"><radialGradient cx="0.50000006" cy="0.175" fx="0.50000006" fy="0.175" gradientUnits="objectBoundingBox" id="radialGradient-1" node-id="5" r="0.82500005" spreadMethod="pad"><stop offset="0" stop-color="#ffdd70"></stop><stop offset="1" stop-color="#f1823a"></stop></radialGradient><linearGradient gradientUnits="objectBoundingBox" id="linearGradient-6" node-id="13" spreadMethod="pad" x1="0.505108" x2="0.505108" y1="0.567239" y2="0.726109"><stop offset="0" stop-color="#201721"></stop><stop offset="1" stop-color="#2b1f2c"></stop></linearGradient><clipPath id="mask-3" node-id="36"><path d="M 344.01 0.00 C 137.59 0.00 0.00 137.59 0.00 344.01 C 0.00 550.41 120.40 688.00 344.01 688.00 C 550.41 688.00 688.00 550.41 688.00 344.01 C 688.00 137.59 550.41 0.00 344.01 0.00 Z" fill="#000000" fill-rule="evenodd" node-id="107" stroke="none" target-height="688" target-width="688" target-x="0" target-y="0"></path></clipPath><clipPath id="mask-3_3" node-id="36"><path d="M 512.01 168.00 L 497.10 168.25 L 482.57 168.96 L 468.40 170.13 L 454.59 171.73 L 441.11 173.76 L 427.96 176.22 L 414.66 179.20 L 401.73 182.59 L 389.17 186.37 L 376.96 190.55 L 365.09 195.13 L 353.54 200.09 L 342.05 205.56 L 330.94 211.40 L 320.18 217.60 L 309.77 224.17 L 299.70 231.10 L 289.95 238.40 L 280.47 246.13 L 271.36 254.19 L 262.60 262.60 L 254.19 271.36 L 246.13 280.47 L 238.40 289.95 L 231.10 299.70 L 224.17 309.77 L 217.60 320.18 L 211.40 330.94 L 205.56 342.05 L 200.09 353.54 L 195.13 365.09 L 190.55 376.96 L 186.37 389.17 L 182.59 401.73 L 179.20 414.66 L 176.22 427.96 L 173.76 441.11 L 171.73 454.59 L 170.13 468.40 L 168.96 482.57 L 168.25 497.10 L 168.00 512.01 L 168.30 529.45 L 169.16 546.37 L 170.56 562.77 L 172.51 578.69 L 174.98 594.15 L 177.95 609.15 L 181.05 622.23 L 184.53 634.92 L 188.38 647.22 L 192.61 659.16 L 197.21 670.75 L 202.17 682.00 L 207.50 692.92 L 213.34 703.78 L 219.55 714.27 L 226.12 724.38 L 233.06 734.14 L 240.38 743.56 L 248.07 752.65 L 256.15 761.40 L 264.58 769.79 L 273.39 777.81 L 282.58 785.48 L 292.17 792.80 L 302.17 799.77 L 312.59 806.40 L 323.44 812.68 L 334.32 818.39 L 345.62 823.74 L 357.34 828.72 L 369.51 833.32 L 382.15 837.55 L 395.27 841.40 L 408.89 844.85 L 422.14 847.71 L 435.85 850.16 L 450.05 852.21 L 464.74 853.83 L 479.95 855.01 L 495.70 855.74 L 512.01 856.00 L 526.92 855.75 L 541.45 855.04 L 555.61 853.87 L 569.43 852.27 L 582.90 850.24 L 596.05 847.78 L 609.35 844.80 L 622.28 841.41 L 634.84 837.63 L 647.05 833.45 L 658.92 828.87 L 670.47 823.91 L 681.95 818.44 L 693.07 812.60 L 703.82 806.40 L 714.23 799.84 L 724.30 792.90 L 734.05 785.60 L 743.53 777.87 L 752.65 769.81 L 761.40 761.40 L 769.81 752.65 L 777.87 743.53 L 785.60 734.05 L 792.90 724.30 L 799.84 714.23 L 806.40 703.82 L 812.60 693.07 L 818.44 681.95 L 823.91 670.47 L 828.87 658.92 L 833.45 647.05 L 837.63 634.84 L 841.41 622.28 L 844.80 609.35 L 847.78 596.05 L 850.24 582.90 L 852.27 569.43 L 853.87 555.61 L 855.04 541.45 L 855.75 526.92 L 856.00 512.01 L 855.75 497.10 L 855.04 482.57 L 853.87 468.40 L 852.27 454.59 L 850.24 441.11 L 847.78 427.96 L 844.80 414.66 L 841.41 401.73 L 837.63 389.17 L 833.45 376.96 L 828.87 365.09 L 823.91 353.54 L 818.44 342.05 L 812.60 330.94 L 806.40 320.18 L 799.84 309.77 L 792.90 299.70 L 785.60 289.95 L 777.87 280.47 L 769.81 271.36 L 761.40 262.60 L 752.65 254.19 L 743.53 246.13 L 734.05 238.40 L 724.30 231.10 L 714.23 224.17 L 703.82 217.60 L 693.07 211.40 L 681.95 205.56 L 670.47 200.09 L 658.92 195.13 L 647.05 190.55 L 634.84 186.37 L 622.28 182.59 L 609.35 179.20 L 596.05 176.22 L 582.90 173.76 L 569.43 171.73 L 555.61 170.13 L 541.45 168.96 L 526.92 168.25 L 512.01 168.00 Z" fill="#000000" fill-rule="evenodd" node-id="107" stroke="none" target-height="688" target-width="688" target-x="168" target-y="168"></path></clipPath><clipPath id="mask-3_4" node-id="36"><path d="M 512.01 168.00 L 497.10 168.25 L 482.57 168.96 L 468.40 170.13 L 454.59 171.73 L 441.11 173.76 L 427.96 176.22 L 414.66 179.20 L 401.73 182.59 L 389.17 186.37 L 376.96 190.55 L 365.09 195.13 L 353.54 200.09 L 342.05 205.56 L 330.94 211.40 L 320.18 217.60 L 309.77 224.17 L 299.70 231.10 L 289.95 238.40 L 280.47 246.13 L 271.36 254.19 L 262.60 262.60 L 254.19 271.36 L 246.13 280.47 L 238.40 289.95 L 231.10 299.70 L 224.17 309.77 L 217.60 320.18 L 211.40 330.94 L 205.56 342.05 L 200.09 353.54 L 195.13 365.09 L 190.55 376.96 L 186.37 389.17 L 182.59 401.73 L 179.20 414.66 L 176.22 427.96 L 173.76 441.11 L 171.73 454.59 L 170.13 468.40 L 168.96 482.57 L 168.25 497.10 L 168.00 512.01 L 168.30 529.45 L 169.16 546.37 L 170.56 562.77 L 172.51 578.69 L 174.98 594.15 L 177.95 609.15 L 181.05 622.23 L 184.53 634.92 L 188.38 647.22 L 192.61 659.16 L 197.21 670.75 L 202.17 682.00 L 207.50 692.92 L 213.34 703.78 L 219.55 714.27 L 226.12 724.38 L 233.06 734.14 L 240.38 743.56 L 248.07 752.65 L 256.15 761.40 L 264.58 769.79 L 273.39 777.81 L 282.58 785.48 L 292.17 792.80 L 302.17 799.77 L 312.59 806.40 L 323.44 812.68 L 334.32 818.39 L 345.62 823.74 L 357.34 828.72 L 369.51 833.32 L 382.15 837.55 L 395.27 841.40 L 408.89 844.85 L 422.14 847.71 L 435.85 850.16 L 450.05 852.21 L 464.74 853.83 L 479.95 855.01 L 495.70 855.74 L 512.01 856.00 L 526.92 855.75 L 541.45 855.04 L 555.61 853.87 L 569.43 852.27 L 582.90 850.24 L 596.05 847.78 L 609.35 844.80 L 622.28 841.41 L 634.84 837.63 L 647.05 833.45 L 658.92 828.87 L 670.47 823.91 L 681.95 818.44 L 693.07 812.60 L 703.82 806.40 L 714.23 799.84 L 724.30 792.90 L 734.05 785.60 L 743.53 777.87 L 752.65 769.81 L 761.40 761.40 L 769.81 752.65 L 777.87 743.53 L 785.60 734.05 L 792.90 724.30 L 799.84 714.23 L 806.40 703.82 L 812.60 693.07 L 818.44 681.95 L 823.91 670.47 L 828.87 658.92 L 833.45 647.05 L 837.63 634.84 L 841.41 622.28 L 844.80 609.35 L 847.78 596.05 L 850.24 582.90 L 852.27 569.43 L 853.87 555.61 L 855.04 541.45 L 855.75 526.92 L 856.00 512.01 L 855.75 497.10 L 855.04 482.57 L 853.87 468.40 L 852.27 454.59 L 850.24 441.11 L 847.78 427.96 L 844.80 414.66 L 841.41 401.73 L 837.63 389.17 L 833.45 376.96 L 828.87 365.09 L 823.91 353.54 L 818.44 342.05 L 812.60 330.94 L 806.40 320.18 L 799.84 309.77 L 792.90 299.70 L 785.60 289.95 L 777.87 280.47 L 769.81 271.36 L 761.40 262.60 L 752.65 254.19 L 743.53 246.13 L 734.05 238.40 L 724.30 231.10 L 714.23 224.17 L 703.82 217.60 L 693.07 211.40 L 681.95 205.56 L 670.47 200.09 L 658.92 195.13 L 647.05 190.55 L 634.84 186.37 L 622.28 182.59 L 609.35 179.20 L 596.05 176.22 L 582.90 173.76 L 569.43 171.73 L 555.61 170.13 L 541.45 168.96 L 526.92 168.25 L 512.01 168.00 Z" fill="#000000" fill-rule="evenodd" node-id="107" stroke="none" target-height="688" target-width="688" target-x="168" target-y="168"></path></clipPath><filter height="1.875" id="filter-4" node-id="9" width="1.695" x="-0.347" y="-0.438"><feGaussianBlur color-interpolation-filters="linearRGB" in="SourceGraphic" result="result1" stdDeviation="34.08 34.08"></feGaussianBlur></filter><filter height="1.875" id="filter-5" node-id="11" width="1.695" x="-0.347" y="-0.438"><feGaussianBlur color-interpolation-filters="linearRGB" in="SourceGraphic" result="result1" stdDeviation="34.08 34.08"></feGaussianBlur></filter><filter height="1.929" id="filter-8" node-id="17" width="1.34" x="-0.17" y="-0.291"><feOffset color-interpolation-filters="linearRGB" dx="0" dy="44" in="SourceAlpha" result="shadowOffsetOuter1"></feOffset><feGaussianBlur color-interpolation-filters="linearRGB" in="shadowOffsetOuter1" result="shadowBlurOuter1" stdDeviation="32 32"></feGaussianBlur><feColorMatrix color-interpolation-filters="linearRGB" in="shadowBlurOuter1" result="result3" type="matrix" values="0 0 0 0 0 0 0 0 0 0 0 0 0 0 0 0 0 0 0.250980407 0"></feColorMatrix></filter><filter height="1.85" id="filter-9" node-id="21" width="1.311" x="-0.156" y="-0.252"><feGaussianBlur color-interpolation-filters="linearRGB" in="SourceAlpha" result="shadowBlurInner1" stdDeviation="18 18"></feGaussianBlur><feOffset color-interpolation-filters="linearRGB" dx="0" dy="40" in="shadowBlurInner1" result="shadowOffsetInner1"></feOffset><feComposite color-interpolation-filters="linearRGB" in="shadowOffsetInner1" in2="SourceAlpha" k1="0" k2="-1" k3="1" k4="0" operator="arithmetic" result="shadowInnerInner1"></feComposite><feColorMatrix color-interpolation-filters="linearRGB" in="shadowInnerInner1" result="shadowMatrixInner1" type="matrix" values="0 0 0 0 0.360784322 0 0 0 0 0.360784322 0 0 0 0 0.360784322 0 0 0 0.968627453 0"></feColorMatrix><feGaussianBlur color-interpolation-filters="linearRGB" in="SourceAlpha" result="shadowBlurInner2" stdDeviation="22 22"></feGaussianBlur><feOffset color-interpolation-filters="linearRGB" dx="4" dy="-44" in="shadowBlurInner2" result="shadowOffsetInner2"></feOffset><feComposite color-interpolation-filters="linearRGB" in="shadowOffsetInner2" in2="SourceAlpha" k1="0" k2="-1" k3="1" k4="0" operator="arithmetic" result="shadowInnerInner2"></feComposite><feColorMatrix color-interpolation-filters="linearRGB" in="shadowInnerInner2" result="shadowMatrixInner2" type="matrix" values="0 0 0 0 0.4627451 0 0 0 0 0.203921571 0 0 0 0 0.505882382 0 0 0 0.349019617 0"></feColorMatrix><feMerge color-interpolation-filters="linearRGB" result="result9"><feMergeNode in="shadowMatrixInner1"></feMergeNode><feMergeNode in="shadowMatrixInner2"></feMergeNode></feMerge></filter></defs><path d="M 0.00 0.00 L 1024.00 0.00 L 1024.00 1024.00 L 0.00 1024.00 Z" fill="#ffffff00" fill-rule="evenodd" node-id="113" stroke="none" target-height="1024" target-width="1024" target-x="0" target-y="0"></path><g node-id="152"><g node-id="154"><g node-id="160"><path d="M 512.01 168.00 L 497.10 168.25 L 482.57 168.96 L 468.40 170.13 L 454.59 171.73 L 441.11 173.76 L 427.96 176.22 L 414.66 179.20 L 401.73 182.59 L 389.17 186.37 L 376.96 190.55 L 365.09 195.13 L 353.54 200.09 L 342.05 205.56 L 330.94 211.40 L 320.18 217.60 L 309.77 224.17 L 299.70 231.10 L 289.95 238.40 L 280.47 246.13 L 271.36 254.19 L 262.60 262.60 L 254.19 271.36 L 246.13 280.47 L 238.40 289.95 L 231.10 299.70 L 224.17 309.77 L 217.60 320.18 L 211.40 330.94 L 205.56 342.05 L 200.09 353.54 L 195.13 365.09 L 190.55 376.96 L 186.37 389.17 L 182.59 401.73 L 179.20 414.66 L 176.22 427.96 L 173.76 441.11 L 171.73 454.59 L 170.13 468.40 L 168.96 482.57 L 168.25 497.10 L 168.00 512.01 L 168.30 529.45 L 169.16 546.37 L 170.56 562.77 L 172.51 578.69 L 174.98 594.15 L 177.95 609.15 L 181.05 622.23 L 184.53 634.92 L 188.38 647.22 L 192.61 659.16 L 197.21 670.75 L 202.17 682.00 L 207.50 692.92 L 213.34 703.78 L 219.55 714.27 L 226.12 724.38 L 233.06 734.14 L 240.38 743.56 L 248.07 752.65 L 256.15 761.40 L 264.58 769.79 L 273.39 777.81 L 282.58 785.48 L 292.17 792.80 L 302.17 799.77 L 312.59 806.40 L 323.44 812.68 L 334.32 818.39 L 345.62 823.74 L 357.34 828.72 L 369.51 833.32 L 382.15 837.55 L 395.27 841.40 L 408.89 844.85 L 422.14 847.71 L 435.85 850.16 L 450.05 852.21 L 464.74 853.83 L 479.95 855.01 L 495.70 855.74 L 512.01 856.00 L 526.92 855.75 L 541.45 855.04 L 555.61 853.87 L 569.43 852.27 L 582.90 850.24 L 596.05 847.78 L 609.35 844.80 L 622.28 841.41 L 634.84 837.63 L 647.05 833.45 L 658.92 828.87 L 670.47 823.91 L 681.95 818.44 L 693.07 812.60 L 703.82 806.40 L 714.23 799.84 L 724.30 792.90 L 734.05 785.60 L 743.53 777.87 L 752.65 769.81 L 761.40 761.40 L 769.81 752.65 L 777.87 743.53 L 785.60 734.05 L 792.90 724.30 L 799.84 714.23 L 806.40 703.82 L 812.60 693.07 L 818.44 681.95 L 823.91 670.47 L 828.87 658.92 L 833.45 647.05 L 837.63 634.84 L 841.41 622.28 L 844.80 609.35 L 847.78 596.05 L 850.24 582.90 L 852.27 569.43 L 853.87 555.61 L 855.04 541.45 L 855.75 526.92 L 856.00 512.01 L 855.75 497.10 L 855.04 482.57 L 853.87 468.40 L 852.27 454.59 L 850.24 441.11 L 847.78 427.96 L 844.80 414.66 L 841.41 401.73 L 837.63 389.17 L 833.45 376.96 L 828.87 365.09 L 823.91 353.54 L 818.44 342.05 L 812.60 330.94 L 806.40 320.18 L 799.84 309.77 L 792.90 299.70 L 785.60 289.95 L 777.87 280.47 L 769.81 271.36 L 761.40 262.60 L 752.65 254.19 L 743.53 246.13 L 734.05 238.40 L 724.30 231.10 L 714.23 224.17 L 703.82 217.60 L 693.07 211.40 L 681.95 205.56 L 670.47 200.09 L 658.92 195.13 L 647.05 190.55 L 634.84 186.37 L 622.28 182.59 L 609.35 179.20 L 596.05 176.22 L 582.90 173.76 L 569.43 171.73 L 555.61 170.13 L 541.45 168.96 L 526.92 168.25 L 512.01 168.00 Z" fill="#fecc4a" fill-rule="evenodd" group-id="1,3,9" node-id="119" stroke="none" target-height="688" target-width="688" target-x="168" target-y="168"></path></g><path d="M 512.01 168.00 L 497.10 168.25 L 482.57 168.96 L 468.40 170.13 L 454.59 171.73 L 441.11 173.76 L 427.96 176.22 L 414.66 179.20 L 401.73 182.59 L 389.17 186.37 L 376.96 190.55 L 365.09 195.13 L 353.54 200.09 L 342.05 205.56 L 330.94 211.40 L 320.18 217.60 L 309.77 224.17 L 299.70 231.10 L 289.95 238.40 L 280.47 246.13 L 271.36 254.19 L 262.60 262.60 L 254.19 271.36 L 246.13 280.47 L 238.40 289.95 L 231.10 299.70 L 224.17 309.77 L 217.60 320.18 L 211.40 330.94 L 205.56 342.05 L 200.09 353.54 L 195.13 365.09 L 190.55 376.96 L 186.37 389.17 L 182.59 401.73 L 179.20 414.66 L 176.22 427.96 L 173.76 441.11 L 171.73 454.59 L 170.13 468.40 L 168.96 482.57 L 168.25 497.10 L 168.00 512.01 L 168.30 529.45 L 169.16 546.37 L 170.56 562.77 L 172.51 578.69 L 174.98 594.15 L 177.95 609.15 L 181.05 622.23 L 184.53 634.92 L 188.38 647.22 L 192.61 659.16 L 197.21 670.75 L 202.17 682.00 L 207.50 692.92 L 213.34 703.78 L 219.55 714.27 L 226.12 724.38 L 233.06 734.14 L 240.38 743.56 L 248.07 752.65 L 256.15 761.40 L 264.58 769.79 L 273.39 777.81 L 282.58 785.48 L 292.17 792.80 L 302.17 799.77 L 312.59 806.40 L 323.44 812.68 L 334.32 818.39 L 345.62 823.74 L 357.34 828.72 L 369.51 833.32 L 382.15 837.55 L 395.27 841.40 L 408.89 844.85 L 422.14 847.71 L 435.85 850.16 L 450.05 852.21 L 464.74 853.83 L 479.95 855.01 L 495.70 855.74 L 512.01 856.00 L 526.92 855.75 L 541.45 855.04 L 555.61 853.87 L 569.43 852.27 L 582.90 850.24 L 596.05 847.78 L 609.35 844.80 L 622.28 841.41 L 634.84 837.63 L 647.05 833.45 L 658.92 828.87 L 670.47 823.91 L 681.95 818.44 L 693.07 812.60 L 703.82 806.40 L 714.23 799.84 L 724.30 792.90 L 734.05 785.60 L 743.53 777.87 L 752.65 769.81 L 761.40 761.40 L 769.81 752.65 L 777.87 743.53 L 785.60 734.05 L 792.90 724.30 L 799.84 714.23 L 806.40 703.82 L 812.60 693.07 L 818.44 681.95 L 823.91 670.47 L 828.87 658.92 L 833.45 647.05 L 837.63 634.84 L 841.41 622.28 L 844.80 609.35 L 847.78 596.05 L 850.24 582.90 L 852.27 569.43 L 853.87 555.61 L 855.04 541.45 L 855.75 526.92 L 856.00 512.01 L 855.75 497.10 L 855.04 482.57 L 853.87 468.40 L 852.27 454.59 L 850.24 441.11 L 847.78 427.96 L 844.80 414.66 L 841.41 401.73 L 837.63 389.17 L 833.45 376.96 L 828.87 365.09 L 823.91 353.54 L 818.44 342.05 L 812.60 330.94 L 806.40 320.18 L 799.84 309.77 L 792.90 299.70 L 785.60 289.95 L 777.87 280.47 L 769.81 271.36 L 761.40 262.60 L 752.65 254.19 L 743.53 246.13 L 734.05 238.40 L 724.30 231.10 L 714.23 224.17 L 703.82 217.60 L 693.07 211.40 L 681.95 205.56 L 670.47 200.09 L 658.92 195.13 L 647.05 190.55 L 634.84 186.37 L 622.28 182.59 L 609.35 179.20 L 596.05 176.22 L 582.90 173.76 L 569.43 171.73 L 555.61 170.13 L 541.45 168.96 L 526.92 168.25 L 512.01 168.00 Z" fill="url(#radialGradient-1)" fill-rule="evenodd" group-id="1,3,10" node-id="124" stroke="none" target-height="688" target-width="688" target-x="168" target-y="168"></path></g><g node-id="155"><g clip-path="url(#mask-3_3)" group-id="1,4" node-id="128"><path d="M 268.80 459.20 L 258.59 459.48 L 248.68 460.28 L 239.05 461.58 L 229.67 463.37 L 220.34 465.68 L 211.38 468.42 L 202.77 471.58 L 194.51 475.15 L 186.40 479.20 L 178.74 483.60 L 171.52 488.34 L 164.71 493.41 L 158.19 498.93 L 152.20 504.70 L 146.71 510.74 L 141.70 517.05 L 137.13 523.72 L 133.14 530.58 L 129.72 537.65 L 126.86 544.95 L 124.99 550.93 L 123.53 557.02 L 122.48 563.21 L 121.83 569.54 L 121.60 576.00 L 121.83 582.46 L 122.48 588.79 L 123.53 594.98 L 124.99 601.07 L 126.86 607.05 L 129.72 614.35 L 133.14 621.42 L 137.13 628.28 L 141.70 634.95 L 146.71 641.26 L 152.20 647.30 L 158.19 653.07 L 164.71 658.59 L 171.52 663.66 L 178.74 668.40 L 186.40 672.80 L 194.51 676.85 L 202.77 680.42 L 211.38 683.58 L 220.34 686.32 L 229.67 688.63 L 239.05 690.42 L 248.68 691.72 L 258.59 692.52 L 268.80 692.80 L 279.01 692.52 L 288.92 691.72 L 298.55 690.42 L 307.93 688.63 L 317.26 686.32 L 326.22 683.58 L 334.83 680.42 L 343.09 676.85 L 351.20 672.80 L 358.86 668.40 L 366.08 663.66 L 372.89 658.59 L 379.41 653.07 L 385.40 647.30 L 390.89 641.26 L 395.90 634.95 L 400.47 628.28 L 404.46 621.42 L 407.88 614.35 L 410.74 607.05 L 412.61 601.07 L 414.07 594.98 L 415.12 588.79 L 415.77 582.46 L 416.00 576.00 L 415.77 569.54 L 415.12 563.21 L 414.07 557.02 L 412.61 550.93 L 410.74 544.95 L 407.88 537.65 L 404.46 530.58 L 400.47 523.72 L 395.90 517.05 L 390.89 510.74 L 385.40 504.70 L 379.41 498.93 L 372.89 493.41 L 366.08 488.34 L 358.86 483.60 L 351.20 479.20 L 343.09 475.15 L 334.83 471.58 L 326.22 468.42 L 317.26 465.68 L 307.93 463.37 L 298.55 461.58 L 288.92 460.28 L 279.01 459.48 L 268.80 459.20 Z" fill="#f68240" fill-rule="evenodd" filter="url(#filter-4)" group-id="1,4" id="路径" node-id="41" stroke="none" target-height="233.59998" target-width="294.4" target-x="121.6" target-y="459.2"></path></g></g><g clip-path="url(#mask-3_4)" group-id="1,5" node-id="132"><path d="M 790.40 444.80 L 780.19 445.08 L 770.28 445.88 L 760.65 447.18 L 751.27 448.97 L 741.94 451.28 L 732.98 454.02 L 724.37 457.18 L 716.11 460.75 L 708.00 464.80 L 700.34 469.20 L 693.12 473.94 L 686.31 479.01 L 679.79 484.53 L 673.80 490.30 L 668.31 496.34 L 663.30 502.65 L 658.73 509.32 L 654.74 516.18 L 651.32 523.25 L 648.46 530.55 L 646.59 536.53 L 645.13 542.62 L 644.08 548.81 L 643.43 555.14 L 643.20 561.60 L 643.43 568.06 L 644.08 574.39 L 645.13 580.58 L 646.59 586.67 L 648.46 592.65 L 651.32 599.95 L 654.74 607.02 L 658.73 613.88 L 663.30 620.55 L 668.31 626.86 L 673.80 632.90 L 679.79 638.67 L 686.31 644.19 L 693.12 649.26 L 700.34 654.00 L 708.00 658.40 L 716.11 662.45 L 724.37 666.02 L 732.98 669.18 L 741.94 671.92 L 751.27 674.23 L 760.65 676.02 L 770.28 677.32 L 780.19 678.12 L 790.40 678.40 L 800.61 678.12 L 810.52 677.32 L 820.15 676.02 L 829.53 674.23 L 838.86 671.92 L 847.82 669.18 L 856.43 666.02 L 864.69 662.45 L 872.80 658.40 L 880.46 654.00 L 887.68 649.26 L 894.49 644.19 L 901.01 638.67 L 907.00 632.90 L 912.49 626.86 L 917.50 620.55 L 922.07 613.88 L 926.06 607.02 L 929.48 599.95 L 932.34 592.65 L 934.21 586.67 L 935.67 580.58 L 936.72 574.39 L 937.37 568.06 L 937.60 561.60 L 937.37 555.14 L 936.72 548.81 L 935.67 542.62 L 934.21 536.53 L 932.34 530.55 L 929.48 523.25 L 926.06 516.18 L 922.07 509.32 L 917.50 502.65 L 912.49 496.34 L 907.00 490.30 L 901.01 484.53 L 894.49 479.01 L 887.68 473.94 L 880.46 469.20 L 872.80 464.80 L 864.69 460.75 L 856.43 457.18 L 847.82 454.02 L 838.86 451.28 L 829.53 448.97 L 820.15 447.18 L 810.52 445.88 L 800.61 445.08 L 790.40 444.80 Z" fill="#f68240" fill-rule="evenodd" filter="url(#filter-5)" group-id="1,5" id="路径备份-2" node-id="42" stroke="none" target-height="233.60004" target-width="294.39996" target-x="643.2" target-y="444.8"></path></g></g><g node-id="153"><g node-id="157"><path d="M 719.33 297.69 C 765.40 292.04 788.44 289.22 806.50 295.83 C 825.45 302.75 841.08 316.60 850.25 334.58 C 858.56 350.86 858.98 372.63 859.00 414.59 L 859.00 417.26 C 859.00 417.71 859.00 418.17 859.00 418.62 L 859.00 425.07 C 858.99 464.25 858.77 484.30 851.45 499.95 C 843.52 516.89 829.91 530.51 812.98 538.44 C 797.67 545.62 778.13 545.98 740.55 546.00 L 738.15 546.00 C 737.75 546.00 737.34 546.00 736.94 546.00 L 652.04 546.00 C 617.16 545.99 599.30 545.82 585.11 539.97 C 565.41 531.85 549.76 516.19 541.64 496.48 C 538.30 488.36 536.81 479.03 536.15 466.01 L 487.85 466.01 C 487.19 479.03 485.70 488.36 482.36 496.48 C 474.24 516.19 458.59 531.85 438.89 539.97 C 424.70 545.82 406.84 545.99 371.96 546.00 L 287.06 546.00 C 286.66 546.00 286.25 546.00 285.85 546.00 L 283.45 546.00 C 245.87 545.98 226.33 545.62 211.02 538.44 C 194.09 530.51 180.48 516.89 172.55 499.95 C 165.38 484.63 165.02 465.08 165.00 427.47 L 165.00 414.59 C 165.02 372.63 165.44 350.86 173.75 334.58 C 182.92 316.60 198.55 302.75 217.50 295.83 C 235.56 289.22 258.60 292.04 304.67 297.69 L 304.70 297.69 C 305.73 297.82 331.90 301.02 383.22 307.31 C 416.15 311.34 432.62 313.36 445.52 320.12 C 462.90 329.22 476.33 344.41 483.24 362.77 C 487.56 374.23 488.25 387.77 488.36 411.47 L 535.64 411.47 C 535.75 387.77 536.44 374.23 540.75 362.77 C 547.67 344.41 561.10 329.22 578.48 320.12 C 591.38 313.36 607.85 311.34 640.78 307.31 C 693.15 300.89 719.33 297.69 719.33 297.69 Z" fill="#000000" fill-rule="evenodd" filter="url(#filter-8)" group-id="2,6" node-id="140" stroke="none" target-height="256.78" target-width="694" target-x="165" target-y="289.22"></path></g><g node-id="158"><path d="M 719.33 297.69 C 765.40 292.04 788.44 289.22 806.50 295.83 C 825.45 302.75 841.08 316.60 850.25 334.58 C 858.56 350.86 858.98 372.63 859.00 414.59 L 859.00 417.26 C 859.00 417.71 859.00 418.17 859.00 418.62 L 859.00 425.07 C 858.99 464.25 858.77 484.30 851.45 499.95 C 843.52 516.89 829.91 530.51 812.98 538.44 C 797.67 545.62 778.13 545.98 740.55 546.00 L 738.15 546.00 C 737.75 546.00 737.34 546.00 736.94 546.00 L 652.04 546.00 C 617.16 545.99 599.30 545.82 585.11 539.97 C 565.41 531.85 549.76 516.19 541.64 496.48 C 538.30 488.36 536.81 479.03 536.15 466.01 L 487.85 466.01 C 487.19 479.03 485.70 488.36 482.36 496.48 C 474.24 516.19 458.59 531.85 438.89 539.97 C 424.70 545.82 406.84 545.99 371.96 546.00 L 287.06 546.00 C 286.66 546.00 286.25 546.00 285.85 546.00 L 283.45 546.00 C 245.87 545.98 226.33 545.62 211.02 538.44 C 194.09 530.51 180.48 516.89 172.55 499.95 C 165.38 484.63 165.02 465.08 165.00 427.47 L 165.00 414.59 C 165.02 372.63 165.44 350.86 173.75 334.58 C 182.92 316.60 198.55 302.75 217.50 295.83 C 235.56 289.22 258.60 292.04 304.67 297.69 L 304.70 297.69 C 305.73 297.82 331.90 301.02 383.22 307.31 C 416.15 311.34 432.62 313.36 445.52 320.12 C 462.90 329.22 476.33 344.41 483.24 362.77 C 487.56 374.23 488.25 387.77 488.36 411.47 L 535.64 411.47 C 535.75 387.77 536.44 374.23 540.75 362.77 C 547.67 344.41 561.10 329.22 578.48 320.12 C 591.38 313.36 607.85 311.34 640.78 307.31 C 693.15 300.89 719.33 297.69 719.33 297.69 Z" fill="url(#linearGradient-6)" fill-rule="evenodd" group-id="2,7" node-id="145" stroke="none" target-height="256.78" target-width="694" target-x="165" target-y="289.22"></path></g><path d="M 719.33 297.69 C 765.40 292.04 788.44 289.22 806.50 295.83 C 825.45 302.75 841.08 316.60 850.25 334.58 C 858.56 350.86 858.98 372.63 859.00 414.59 L 859.00 417.26 C 859.00 417.71 859.00 418.17 859.00 418.62 L 859.00 425.07 C 858.99 464.25 858.77 484.30 851.45 499.95 C 843.52 516.89 829.91 530.51 812.98 538.44 C 797.67 545.62 778.13 545.98 740.55 546.00 L 738.15 546.00 C 737.75 546.00 737.34 546.00 736.94 546.00 L 652.04 546.00 C 617.16 545.99 599.30 545.82 585.11 539.97 C 565.41 531.85 549.76 516.19 541.64 496.48 C 538.30 488.36 536.81 479.03 536.15 466.01 L 487.85 466.01 C 487.19 479.03 485.70 488.36 482.36 496.48 C 474.24 516.19 458.59 531.85 438.89 539.97 C 424.70 545.82 406.84 545.99 371.96 546.00 L 287.06 546.00 C 286.66 546.00 286.25 546.00 285.85 546.00 L 283.45 546.00 C 245.87 545.98 226.33 545.62 211.02 538.44 C 194.09 530.51 180.48 516.89 172.55 499.95 C 165.38 484.63 165.02 465.08 165.00 427.47 L 165.00 414.59 C 165.02 372.63 165.44 350.86 173.75 334.58 C 182.92 316.60 198.55 302.75 217.50 295.83 C 235.56 289.22 258.60 292.04 304.67 297.69 L 304.70 297.69 C 305.73 297.82 331.90 301.02 383.22 307.31 C 416.15 311.34 432.62 313.36 445.52 320.12 C 462.90 329.22 476.33 344.41 483.24 362.77 C 487.56 374.23 488.25 387.77 488.36 411.47 L 535.64 411.47 C 535.75 387.77 536.44 374.23 540.75 362.77 C 547.67 344.41 561.10 329.22 578.48 320.12 C 591.38 313.36 607.85 311.34 640.78 307.31 C 693.15 300.89 719.33 297.69 719.33 297.69 Z" fill="#000000" fill-rule="evenodd" filter="url(#filter-9)" group-id="2,8" node-id="150" stroke="none" target-height="256.78" target-width="694" target-x="165" target-y="289.22"></path></g><path d="M 450.75 662.54 C 493.54 687.07 536.31 692.36 579.07 678.40 C 621.82 664.44 651.36 638.23 667.69 599.76" fill="none" id="路径-13" node-id="47" stroke="#000000" stroke-linecap="round" stroke-width="32" target-height="92.599976" target-width="216.94" target-x="450.75" target-y="599.76"></path></svg>
