<svg xml:space="preserve" style="enable-background:new 0 0 1200 1200;" viewBox="0 0 1200 1200" y="0px" x="0px" xmlns:xlink="http://www.w3.org/1999/xlink" xmlns="http://www.w3.org/2000/svg" id="小虎_1_" version="1.1">
<style type="text/css">
	.st0{fill:rgba(0,0,0,0);}
	.st1{clip-path:url(#SVGID_2_);}
	.st2{clip-path:url(#SVGID_4_);fill:#F7C20A;}
	.st3{display:none;clip-path:url(#SVGID_4_);fill:#FFFAE6;}
	.st4{clip-path:url(#SVGID_4_);fill:#FFFAE6;}
	.st5{clip-path:url(#SVGID_4_);}
	.st6{fill:#E84A2C;}
	.st7{clip-path:url(#SVGID_4_);fill:#2E2725;}
	.st8{opacity:0.25;clip-path:url(#SVGID_4_);fill:#301A0F;}
	.st9{clip-path:url(#SVGID_4_);fill:#302C27;}
	.st10{opacity:0.9;clip-path:url(#SVGID_4_);fill:#FFFFFF;}
	.st11{opacity:0.4;clip-path:url(#SVGID_4_);}
	.st12{fill-rule:evenodd;clip-rule:evenodd;fill:#FFFFFF;}
	.st13{fill:#E8B109;}
	.st14{clip-path:url(#SVGID_6_);fill:#F7C20A;}
	.st15{fill:#FFFAE6;}
	.st16{fill:#302C27;}
	.st17{fill-rule:evenodd;clip-rule:evenodd;fill:#D63715;}
	.st18{fill-rule:evenodd;clip-rule:evenodd;fill:#F54431;}
	.st19{fill:#F7CA31;}
	.st20{clip-path:url(#SVGID_8_);fill:#216EC7;}
	.st21{clip-path:url(#SVGID_8_);fill:#2E2725;}
	.st22{opacity:0.2;clip-path:url(#SVGID_8_);}
	.st23{fill:#FFFFFF;}
	.st24{fill:#DE4526;}
</style>
<rect height="1200" width="1200" class="st0"></rect>
<g>
	<defs>
		<rect height="1200" width="1200" id="SVGID_1_"></rect>
	</defs>
	<clipPath id="SVGID_2_">
		<use style="overflow:visible;" xlink:href="#SVGID_1_"></use>
	</clipPath>
	<g class="st1" id="head_1_">
		<g>
			<defs>
				<path d="M768.99,915.76l262.55-64.24c8.92-2.18,15.21-10.16,15.25-19.34l1.89-460.54
					c0.02-5.76-4.05-10.73-9.71-11.83L495.21,254.1c-8.12-1.58-16.53-0.6-24.07,2.8L147.94,398.54c-4.38,1.92-7.2,6.26-7.18,11.04
					l1.89,439.86c0.04,9.96,7.4,18.36,17.26,19.73l209.23,28.89l361.67,26L768.99,915.76z" id="SVGID_3_"></path>
			</defs>
			<clipPath id="SVGID_4_">
				<use style="overflow:visible;" xlink:href="#SVGID_3_"></use>
			</clipPath>
			<path d="M757.57,924.68c0.94,0.05,1.89-0.03,2.81-0.25l284.43-66.41c1.73-0.43,3.29-8.61,3.77-11.34
				c0.1-0.57,0.15-1.14,0.15-1.71V368.94c0-4.79-3.39-8.9-8.09-9.82L495.21,253.1c-8.12-1.58-16.53-0.6-24.07,2.8L146.71,398.08
				c-3.64,1.59-5.99,5.19-5.99,9.16v459.71c0,5.05,3.77,9.31,8.78,9.93l221.3,27.15c0.23,0.03,0.46,0.05,0.68,0.06L757.57,924.68z" class="st2"></path>
			<path d="M1048.16,963.8V652.7L494.64,541.1c-8.12-1.58-16.53-0.6-24.07,2.8l-106.15,39.14v236.91
				c0,19.64,14.26,36.38,33.66,39.49L1048.16,963.8z" class="st3"></path>
			<path d="M1048.16,968.8V655.7L494.64,546.1c-8.12-1.58-16.53-0.6-24.07,2.8L91.18,691.18l6.65,270.69L1048.16,968.8z" class="st4"></path>
			<g class="st5">
				<path d="M751.01,664c-2.26,0-4.42-1.28-5.44-3.46c-1.4-3-0.11-6.57,2.89-7.98C749.81,651.93,782.02,637,813,637
					c3.31,0,6,2.69,6,6s-2.69,6-6,6c-28.26,0-59.15,14.29-59.46,14.43C752.72,663.82,751.86,664,751.01,664z" class="st6"></path>
				<path d="M751.01,667c-3.48,0-6.68-2.04-8.16-5.18c-2.1-4.49-0.16-9.86,4.33-11.96C748.56,649.2,781.35,634,813,634
					c4.96,0,9,4.04,9,9s-4.04,9-9,9c-27.51,0-57.88,14.01-58.19,14.15C753.61,666.71,752.33,667,751.01,667z" class="st6"></path>
			</g>
			<path d="M797.48,603.43l23.65-28.58c2.57-3.21,0.45-7.71-3.93-8.34l-47.3-7.76c-4.99-0.72-8.68,4.03-6.15,7.92
				l23.65,36.35C789.57,606.37,794.95,606.6,797.48,603.43z" class="st7"></path>
			<path d="M648.55,473.04l-42.8-6.94c-4.19-0.58-8.3,1.54-10.25,5.29c-1.95,3.76-1.33,8.33,1.56,11.43L617,505.2V525
				c0,16.57,13.43,30,30,30s30-13.43,30-30v-22C677,486.95,666.25,475.58,648.55,473.04z" class="st7"></path>
			<path d="M971.74,542.83c-0.91-3.89-4.05-6.87-7.99-7.57l-40-7.11c-0.82-0.15-1.64-0.18-2.46-0.12
				c-0.43-0.02-0.86-0.03-1.29-0.03c-16.02,0-29,12.98-29,29v22c0,16.02,12.98,29,29,29s29-12.98,29-29v-11.86l18.94-13.98
				C971.15,550.78,972.65,546.72,971.74,542.83z" class="st7"></path>
			<path d="M382.87,901.77L158.3,870.14c-6.19-0.87-7.09-9.44-1.21-11.58l311.26-113.18
				c10.01-3.66,20.81-4.56,31.29-2.62l532.63,97.97c6.21,1.14,6.67,9.86,0.62,11.65l-29.21,8.64l-265.85,65.24L382.87,901.77z" class="st8"></path>
			<path d="M637.51,433.5c-1.36,0-2.74-0.13-4.11-0.39l-60.5-11.5c-11.94-2.27-19.77-13.78-17.5-25.72
				c1.76-9.25,9.07-16.04,17.82-17.57l-10.43-10.43c-8.59-8.59-8.59-22.52,0-31.11c8.59-8.59,22.52-8.59,31.11,0l59.17,59.17
				c6.83,6.83,8.41,17.31,3.89,25.84C653.09,429.09,645.54,433.5,637.51,433.5z" class="st9"></path>
			<path d="M984.61,500c-1.31,0-2.63-0.12-3.96-0.36l-56.08-10.2c-9.13-1.66-16.23-8.87-17.76-18.02
				c-1.53-9.15,2.85-18.28,10.94-22.81l55.92-31.35c10.6-5.94,24.01-2.17,29.95,8.43c5.94,10.6,2.17,24.01-8.43,29.95l-3.03,1.7
				c9.88,3.6,16.03,13.9,14.08,24.6C1004.29,492.56,995.03,500,984.61,500z" class="st9"></path>
			<path d="M1100.13,703.88c-1.36,0-2.73-0.13-4.12-0.39l-100.73-19.07c-11.94-2.26-19.78-13.77-17.52-25.71
				c2.26-11.94,13.77-19.78,25.71-17.52l100.73,19.07c11.94,2.26,19.78,13.77,17.52,25.71
				C1119.72,696.53,1110.49,703.88,1100.13,703.88z" class="st9"></path>
			<path d="M1100.13,785.88c-1.36,0-2.73-0.13-4.12-0.39l-100.73-19.07c-11.94-2.26-19.78-13.77-17.52-25.71
				c2.26-11.94,13.77-19.78,25.71-17.52l100.73,19.07c11.94,2.26,19.78,13.77,17.52,25.71
				C1119.72,778.53,1110.49,785.88,1100.13,785.88z" class="st9"></path>
			<path d="M288.57,638.5V509.15c0-11.39,8.85-21.09,20.23-21.49c11.95-0.42,21.77,9.13,21.77,20.99v83.75l127.4-47.55
				c13.85-5.17,28.86-6.45,43.39-3.7l66.93,12.67c11.4,2.16,18.88,13.14,16.73,24.54c-2.16,11.4-13.14,18.88-24.54,16.73
				l-66.92-12.67c-7-1.32-14.22-0.71-20.89,1.78l-170.59,63.67C295.53,650.31,288.57,645.47,288.57,638.5z" class="st9"></path>
			<path d="M362.24,517.31v-33.46c0-10.55,8.38-19.46,18.93-19.5c8.24-0.03,15.26,5.19,17.93,12.5l15.27-5.93
				c10-3.88,21.27,1.27,24.83,11.49c3.39,9.73-1.9,20.38-11.5,24.11l-51.83,20.12C369.3,529.17,362.24,524.34,362.24,517.31z" class="st9"></path>
			<path d="M206,756V542.59c0-11.93,9.28-22.09,21.2-22.51c12.52-0.44,22.8,9.57,22.8,21.99v168.08l207.84-76.4
				c13.92-5.12,28.98-6.36,43.55-3.6l66.56,12.6c11.72,2.22,19.98,13.23,18.18,25.02c-1.89,12.38-13.64,20.62-25.84,18.31
				l-67.08-12.7c-6.75-1.28-13.73-0.7-20.18,1.67l-250.88,92.22C214.31,770.14,206,764.34,206,756z" class="st9"></path>
			<path d="M483.98,698.86c-2.49,0-4.5-2.01-4.5-4.5V284.25c0-2.49,2.01-4.5,4.5-4.5s4.5,2.01,4.5,4.5v410.11
				C488.48,696.84,486.46,698.86,483.98,698.86z" class="st10"></path>
			<g class="st11">
				<path d="M280.04,382.58v39.12c0,1.43,1.44,2.41,2.78,1.89l29.31-11.58c0.77-0.31,1.28-1.05,1.28-1.89v-40.01
					c0-1.46-1.49-2.44-2.83-1.87l-29.31,12.48C280.53,381.04,280.04,381.77,280.04,382.58z" class="st12"></path>
				<path d="M230.8,444.15l29.33-11.59c0.77-0.3,1.28-1.05,1.28-1.88v-38.45c0-1.45-1.48-2.42-2.81-1.86l-29.33,12.49
					c-0.74,0.32-1.23,1.05-1.23,1.86v37.56C228.04,443.7,229.48,444.68,230.8,444.15z" class="st12"></path>
				<path d="M179.79,464.31l29.35-11.6c0.77-0.3,1.27-1.04,1.27-1.87v-36.92c0-1.44-1.47-2.41-2.8-1.85l-29.35,12.49
					c-0.74,0.32-1.22,1.04-1.22,1.85v36.02C177.04,463.86,178.47,464.84,179.79,464.31z" class="st12"></path>
			</g>
		</g>
		<path d="M149.32,392.86c-1.97,0.88-3.75-1.55-2.31-3.16L255.7,268.62c2.41-2.68,6.08-3.86,9.6-3.08l107.02,23.68
			c1.81,0.49,2.01,2.99,0.29,3.76L149.32,392.86z" class="st13"></path>
		<g>
			<defs>
				<path d="M1037.5,354.39c2.2,0.45,3.36-2.5,1.44-3.67l-147.76-90.16c-6.25-3.89-13.15-6.6-20.38-7.99l-484.68-93.3
					c-2.08-0.4-3.27,2.28-1.59,3.56c0,0,65.47,53.1,87.25,71.1c5.76,4.62,12.78,6.77,24.87,9.42
					C584.34,261.36,966.88,339.9,1037.5,354.39z" id="SVGID_5_"></path>
			</defs>
			<clipPath id="SVGID_6_">
				<use style="overflow:visible;" xlink:href="#SVGID_5_"></use>
			</clipPath>
			<path d="M1037.5,354.39c2.2,0.45,3.36-2.5,1.44-3.67l-147.76-90.16c-6.25-3.89-13.15-6.6-20.38-7.99l-484.68-93.3
				c-2.08-0.4-3.27,2.28-1.59,3.56c0,0,65.47,53.1,87.25,71.1c5.76,4.62,12.78,6.77,24.87,9.42
				C584.34,261.36,966.88,339.9,1037.5,354.39z" class="st14"></path>
		</g>
		<path d="M579.86,196.31l107.92,89.48c2.24,1.9,3.53,4.69,3.53,7.63l2,147.85c0,3.19,3.55,5.09,6.21,3.34l39.32-26
			c1.66-1.1,3.87-0.81,5.19,0.67l37.24,41.68c1.39,1.55,3.73,1.78,5.4,0.53l35.46-26.81c1.52-1.15,3.63-1.07,5.05,0.19l48.51,42.66
			c2.65,2.33,6.79,0.34,6.64-3.18l-5.4-146.03c-0.13-2.92-1.52-5.64-3.83-7.44l-117.61-89.34c-2.47-1.88-5.35-3.15-8.4-3.73
			L579.86,196.31z" class="st15"></path>
		<path d="M747.88,389.7c-11.05,0-20-8.95-20-20v-30c0-11.05,8.95-20,20-20s20,8.95,20,20v30
			C767.88,380.74,758.92,389.7,747.88,389.7z" class="st16"></path>
		<path d="M829.88,404.7c-11.05,0-20-8.95-20-20v-30c0-11.05,8.95-20,20-20s20,8.95,20,20v30
			C849.88,395.74,840.92,404.7,829.88,404.7z" class="st16"></path>
	</g>
	<g class="st1" id="body_1_">
		<path d="M780.35,940.95c0,0,21.14-25.25,96.33-20.83c59.4,3.49,90.53,1.6,98.89,0.72c1.5-0.16,2.62,1.29,2.06,2.64
			c-4.53,10.97-29.23,48.28-89.92,54.48c-71.36,7.29-114.78-20.25-114.78-20.25L780.35,940.95z" class="st17"></path>
		<path d="M743.72,925.87c0,0,62.83-1.72,96.86,32c34.03,33.72,66.28,93.99,74.89,102c7.13,6.63-57.55,21.51-117.83-44
			S743.72,925.87,743.72,925.87z" class="st18"></path>
		<polygon points="737.73,1159.86 742.72,1209.87 827.72,1209.87 821.73,1157.86" class="st19"></polygon>
		<g>
			<defs>
				<path d="M738.72,1160.86l4.5,49.01h-470.5c0,0-14.15-384.08,257-384.08c112.29,0,191.89,42.5,243.72,101.46
					c84.79,96.46,98.28,233.6,98.28,233.6h-179L738.72,1160.86z" id="SVGID_7_"></path>
			</defs>
			<clipPath id="SVGID_8_">
				<use style="overflow:visible;" xlink:href="#SVGID_7_"></use>
			</clipPath>
			<path d="M738.72,1160.86l4.5,49.01h-470.5c0,0-14.15-384.08,257-384.08c112.29,0,191.89,42.5,243.72,101.46
				c84.79,96.46,98.28,233.6,98.28,233.6h-179L738.72,1160.86z" class="st20"></path>
			<path d="M291.84,938.67c-7.09,0-13.95-3.77-17.58-10.44c-5.28-9.7-1.71-21.85,7.99-27.13
				c11.17-6.09,44.17-9.44,92.92-9.44c96.16,0,127.9,4,129.2,4.17c10.95,1.43,18.67,11.47,17.24,22.42
				c-1.43,10.94-11.45,18.65-22.39,17.25c-0.63-0.08-31.94-3.84-124.06-3.84c-56.86,0-73.19,4.62-75.23,5.28
				C297.32,938.11,294.56,938.67,291.84,938.67z M301.33,936.26C301.33,936.26,301.33,936.26,301.33,936.26
				C301.33,936.26,301.33,936.26,301.33,936.26z M301.37,936.24c-0.01,0.01-0.02,0.01-0.03,0.02
				C301.35,936.25,301.36,936.24,301.37,936.24z M301.39,936.23c-0.01,0-0.01,0.01-0.02,0.01
				C301.38,936.24,301.38,936.23,301.39,936.23z" class="st21"></path>
			<path d="M289.84,1014.67c-7.09,0-13.95-3.77-17.58-10.44c-5.28-9.7-1.71-21.85,7.99-27.13
				c11.17-6.09,44.17-9.44,92.92-9.44c96.16,0,127.9,4,129.2,4.17c10.95,1.43,18.67,11.47,17.24,22.42
				c-1.43,10.94-11.45,18.65-22.39,17.25c-0.63-0.08-31.94-3.84-124.06-3.84c-56.86,0-73.19,4.62-75.23,5.28
				C295.32,1014.11,292.56,1014.67,289.84,1014.67z M299.33,1012.26C299.33,1012.26,299.33,1012.26,299.33,1012.26
				C299.33,1012.26,299.33,1012.26,299.33,1012.26z M299.37,1012.24c-0.01,0.01-0.02,0.01-0.03,0.02
				C299.35,1012.25,299.36,1012.24,299.37,1012.24z M299.39,1012.23c-0.01,0-0.01,0.01-0.02,0.01
				C299.38,1012.24,299.38,1012.23,299.39,1012.23z" class="st21"></path>
			<path d="M279.84,1092.7c-7.09,0-13.95-3.77-17.58-10.44c-5.28-9.7-1.71-21.85,7.99-27.13
				c11.25-6.13,44.54-9.51,93.73-9.51c97.08,0,129.12,4.04,130.43,4.21c10.95,1.43,18.67,11.47,17.24,22.42
				c-1.43,10.94-11.44,18.65-22.38,17.25l0,0c-0.31-0.04-31.77-3.88-125.3-3.88c-57.52,0-73.99,4.68-76.03,5.34
				C285.33,1092.15,282.57,1092.7,279.84,1092.7z M289.37,1090.27C289.37,1090.28,289.36,1090.28,289.37,1090.27
				C289.36,1090.28,289.37,1090.28,289.37,1090.27z M289.39,1090.26c0,0-0.01,0.01-0.02,0.01
				C289.38,1090.27,289.38,1090.27,289.39,1090.26z" class="st21"></path>
			<path d="M269.84,1175.84c-7.09,0-13.95-3.77-17.58-10.44c-5.28-9.7-1.71-21.85,7.99-27.13
				c11.57-6.3,45.98-9.77,96.9-9.77c100.69,0,133.89,4.18,135.26,4.36c10.95,1.43,18.67,11.47,17.24,22.42
				c-1.43,10.94-11.45,18.65-22.39,17.25c-0.6-0.08-33.41-4.03-130.11-4.03c-60.07,0-77.1,4.92-79.17,5.59
				C275.35,1175.27,272.58,1175.84,269.84,1175.84z M277.78,1174.16C277.78,1174.16,277.78,1174.16,277.78,1174.16
				C277.78,1174.16,277.78,1174.16,277.78,1174.16z M279.37,1173.41L279.37,1173.41C279.37,1173.41,279.37,1173.41,279.37,1173.41z
				 M279.39,1173.4c0,0-0.01,0-0.01,0.01C279.38,1173.4,279.38,1173.4,279.39,1173.4z" class="st21"></path>
			<path d="M720.07,995.91c-0.18-5.06,3.5-9.43,8.51-10.18c19.05-2.87,69.02-10.16,81.56-9.6
				c15.59,0.7,58.16,110.99,64.32,115.42c5.35,3.84-71.55,24.74-100.91,29.21c-8.55,1.25-14.37-2.36-17.29-7.17
				C742.14,1090.37,721,1022.72,720.07,995.91z" class="st22"></path>
		</g>
		<path d="M876.95,1156.81c-0.29-2.75-2.75-4.74-5.49-4.45c-0.43,0.04-43.22,4.49-86.84,5.95
			c-81.2,2.73-90.17-7.15-91.15-9.16l-0.23-0.48l-0.33-0.42c-9.67-12.39-22.89-131.91-28.96-204.34c-0.23-2.75-2.65-4.81-5.4-4.57
			c-2.75,0.23-4.8,2.65-4.57,5.4c0.04,0.47,4.02,47.85,9.69,96.84c0.92,7.94,1.81,15.31,2.67,22.16
			c-31.14-37.71-40.34-87.63-40.46-88.29c-0.48-2.72-3.08-4.53-5.79-4.05c-2.72,0.48-4.53,3.07-4.05,5.79
			c0.44,2.52,11.36,62.15,51.37,102.64c0.35,0.35,0.75,0.62,1.16,0.85c7.46,54.64,12.65,68.44,16.14,73.29
			c3.84,7.17,16.57,14.81,73.18,14.81c8.1,0,17.1-0.16,27.1-0.49c43.97-1.48,87.06-5.96,87.49-6
			C875.24,1162.01,877.24,1159.56,876.95,1156.81z" class="st23"></path>
		<path d="M692.43,858.12c3.51,2.22,1.76,6.65-2.39,6.38c-31.78-2.1-121.1-1.98-189.91,41.79
			c-30.86,19.63-154.44,103.45-144.27,57.48c3.81-17.22-6.26-37.07-7.15-58.93c-0.55-13.39,5.47-26.92,11.04-33.22
			c28.3-32.01,96.79-60.62,177.75-54.74C625.84,823.29,672.58,845.58,692.43,858.12z" class="st18"></path>
		<g>
			<path d="M722.28,982.87c-0.35-5.05,3.17-9.54,8.15-10.47c18.94-3.53,68.62-12.56,81.18-12.44
				c1.95,0.02,5.38,1.73,8.16,4.73c19.42,20.97,54.63,104.69,60.16,108.37c5.52,3.68-71.93,28.39-100.54,33.8
				c-8.38,2.13-13.17-1.44-15.89-5.38C748.64,1079.98,724.19,1010.19,722.28,982.87z" class="st23"></path>
			<path d="M758.99,1021c-4.62,0-8.78-3.23-9.77-7.93c-1.14-5.4,2.31-10.71,7.71-11.85l52-11
				c5.4-1.14,10.71,2.31,11.85,7.71c1.14,5.4-2.31,10.71-7.71,11.85l-52,11C760.37,1020.93,759.68,1021,758.99,1021z" class="st24"></path>
			<path d="M777.99,1065c-4.46,0-8.53-3.01-9.68-7.53c-1.36-5.35,1.87-10.8,7.22-12.16l51-13
				c5.35-1.37,10.8,1.87,12.16,7.22c1.36,5.35-1.87,10.8-7.22,12.16l-51,13C779.64,1064.9,778.81,1065,777.99,1065z" class="st24"></path>
		</g>
	</g>
</g>
</svg>
