<svg xml:space="preserve" style="enable-background:new 0 0 1200 1200;" viewBox="0 0 1200 1200" y="0px" x="0px" xmlns:xlink="http://www.w3.org/1999/xlink" xmlns="http://www.w3.org/2000/svg" id="中二病" version="1.1">
<style type="text/css">
	.st0{fill:rgba(0,0,0,0);}
	.st1{clip-path:url(#SVGID_2_);}
	.st2{fill:#FFFFFF;}
	.st3{fill:#2E8AE6;}
	.st4{clip-path:url(#SVGID_4_);}
	.st5{opacity:0.3;clip-path:url(#SVGID_4_);fill:#5693B3;}
	.st6{clip-path:url(#SVGID_4_);fill:#C0D9F0;}
	.st7{clip-path:url(#SVGID_6_);fill:#2E8AE6;}
	.st8{clip-path:url(#SVGID_6_);fill:#BFE0F0;}
	.st9{opacity:0.3;clip-path:url(#SVGID_4_);}
	.st10{fill-rule:evenodd;clip-rule:evenodd;fill:#5693B3;}
	.st11{fill:#E84A2C;}
	.st12{fill:#F54431;}
	.st13{clip-path:url(#SVGID_4_);fill:#1C78D6;}
	.st14{clip-path:url(#SVGID_4_);fill:#FFFFFF;}
	.st15{opacity:0.3;fill:#5693B3;}
	.st16{fill:#FCCD11;}
	.st17{clip-path:url(#SVGID_8_);fill:#1C78D6;}
	.st18{clip-path:url(#SVGID_8_);fill:#FCCD11;}
</style>
<rect height="1200" width="1200" class="st0"></rect>
<g>
	<defs>
		<rect height="1200" width="1200" id="SVGID_1_"></rect>
	</defs>
	<clipPath id="SVGID_2_">
		<use style="overflow:visible;" xlink:href="#SVGID_1_"></use>
	</clipPath>
	<g class="st1" id="head_11_">
		<g>
			<path d="M150.45,384.36l109.59-122.09c2.53-2.81,6.42-3.96,10.07-2.97l97.76,26.58L150.45,384.36z" class="st2"></path>
			<path d="M150.45,389.86c-1.31,0-2.62-0.46-3.67-1.41c-2.26-2.03-2.45-5.51-0.42-7.77L255.95,258.6
				c3.94-4.39,9.92-6.15,15.61-4.6l97.75,26.58c2.93,0.8,4.66,3.82,3.86,6.75s-3.81,4.66-6.75,3.86l-97.76-26.58
				c-1.66-0.45-3.39,0.06-4.54,1.33L154.55,388.04C153.46,389.25,151.96,389.86,150.45,389.86z" class="st3"></path>
		</g>
		<g>
			<path d="M1038.34,346.87l-146.73-86.31c-6.25-3.89-13.15-6.6-20.38-7.99l-484.68-93.3c-2.08-0.4-3.27,2.28-1.59,3.56
				c0,0,65.47,53.1,87.25,71.1L1038.34,346.87z" class="st2"></path>
			<path d="M1038.34,352.37c-0.95,0-1.91-0.25-2.78-0.76l-146.84-86.38c-5.7-3.55-11.92-5.99-18.51-7.26l-470.98-90.66
				c19.55,15.88,60.31,49,76.5,62.38c2.34,1.94,2.67,5.4,0.74,7.74c-1.93,2.34-5.4,2.67-7.74,0.74
				c-21.27-17.58-85.14-69.39-87.17-71.03c-2.72-2.13-3.63-5.8-2.22-8.96c1.43-3.2,4.83-4.96,8.27-4.3l484.68,93.3
				c7.89,1.52,15.36,4.44,22.19,8.68l146.67,86.28c2.62,1.54,3.49,4.91,1.95,7.53C1042.06,351.4,1040.22,352.37,1038.34,352.37z" class="st3"></path>
		</g>
		<g>
			<defs>
				<path d="M769.43,915.76l262.55-64.24c8.92-2.18,15.21-10.16,15.25-19.34l1.89-460.54
					c0.02-5.76-4.05-10.73-9.71-11.83L495.65,254.1c-8.12-1.58-16.53-0.6-24.07,2.8L148.39,398.54c-4.38,1.92-7.2,6.26-7.18,11.04
					l1.89,439.86c0.04,9.96,7.4,18.36,17.26,19.73l209.23,28.89l361.67,26L769.43,915.76z" id="SVGID_3_"></path>
			</defs>
			<clipPath id="SVGID_4_">
				<use style="overflow:visible;" xlink:href="#SVGID_3_"></use>
			</clipPath>
			<g class="st4">
				<path d="M759.43,919.76l271.21-67.6c9.77-2.44,16.64-11.19,16.68-21.26l1.8-461.08c0.03-5.29-3.71-9.85-8.9-10.86
					L495.65,253.1c-8.12-1.58-16.53-0.6-24.07,2.8L148.37,397.55c-4.37,1.92-7.19,6.24-7.18,11.02l0.94,438.33
					c0.03,11.98,8.89,22.11,20.76,23.73l208.71,28.44L759.43,919.76z" class="st2"></path>
				<path d="M759.43,931.76c-0.21,0-0.43-0.01-0.64-0.02l-387.84-20.69c-0.33-0.02-0.66-0.05-0.98-0.09l-208.71-28.44
					c-17.71-2.41-31.1-17.71-31.14-35.59l-0.94-438.33c-0.02-9.55,5.62-18.2,14.37-22.03l323.16-141.63
					c9.84-4.42,20.64-5.67,31.23-3.61l544.57,105.86c10.85,2.11,18.68,11.66,18.61,22.72l-1.8,461.05
					c-0.06,15.58-10.66,29.09-25.78,32.86l-271.21,67.6C761.38,931.64,760.41,931.76,759.43,931.76z M372.72,887.11l385.56,20.56
					l269.46-67.16c4.45-1.11,7.56-5.08,7.58-9.66l1.79-460.27l-543.75-105.7c-5.71-1.11-11.54-0.43-16.85,1.96
					c-0.04,0.02-0.08,0.03-0.12,0.05L153.18,408.54l0.94,438.33c0.01,5.96,4.48,11.06,10.38,11.86L372.72,887.11z" class="st3"></path>
			</g>
			<path d="M382.26,901.46l-223.54-31.48c-6.16-0.87-7.06-9.4-1.21-11.53l309.83-112.66
				c9.96-3.64,20.72-4.54,31.14-2.61l530.2,97.52c6.18,1.14,6.64,9.82,0.61,11.6l-29.07,8.6L735.6,925.85L382.26,901.46z" class="st5"></path>
			<path d="M484.42,698.86c-2.49,0-4.5-2.01-4.5-4.5V285.25c0-2.49,2.01-4.5,4.5-4.5s4.5,2.01,4.5,4.5v409.11
				C488.92,696.84,486.9,698.86,484.42,698.86z" class="st6"></path>
			<g class="st4">
				<defs>
					<path d="M228.91,549.26v117.1c0,6.12,2.8,11.9,7.6,15.69l50.1,39.6c5.59,4.42,13.12,5.53,19.75,2.91l92.7-36.6
						V431.93l-112.37,44.36c-3.13,1.24-5.9,3.24-8.04,5.83l-45.12,54.37C230.54,540.08,228.91,544.59,228.91,549.26z" id="SVGID_5_"></path>
				</defs>
				<clipPath id="SVGID_6_">
					<use style="overflow:visible;" xlink:href="#SVGID_5_"></use>
				</clipPath>
				<path d="M299.04,735.95c-6.67,0-13.27-2.21-18.64-6.45l-50.1-39.6c-7.24-5.72-11.39-14.3-11.39-23.53v-117.1
					c0-6.98,2.46-13.79,6.92-19.16l45.12-54.37c3.22-3.87,7.39-6.9,12.07-8.74l126.04-49.76v277.54l-99.03,39.1
					C306.48,735.27,302.75,735.95,299.04,735.95z M389.05,446.63l-98.69,38.97c-1.56,0.62-2.95,1.62-4.02,2.92l-45.12,54.37
					c-1.49,1.79-2.31,4.06-2.31,6.39v117.1c0,3.08,1.38,5.94,3.8,7.84l50.1,39.6c2.79,2.2,6.57,2.76,9.87,1.46l86.37-34.1V446.63z" class="st7"></path>
				<polygon points="343.55,503.62 343.55,637.44 411.44,691.05 516.42,649.6 516.42,389.69 397.51,436.64" class="st8"></polygon>
				<path d="M346,523c-1.93,0-3.77-1.12-4.59-3c-1.1-2.53,0.05-5.48,2.59-6.58l39-17c2.53-1.11,5.48,0.06,6.58,2.59
					c1.1,2.53-0.05,5.48-2.59,6.58l-39,17C347.35,522.87,346.67,523,346,523z" class="st7"></path>
				<path d="M346,564.11c-1.9,0-3.72-1.09-4.55-2.93c-1.14-2.51-0.03-5.48,2.48-6.62l39-17.74
					c2.51-1.14,5.48-0.03,6.62,2.48c1.14,2.51,0.03,5.48-2.48,6.62l-39,17.74C347.4,563.97,346.7,564.11,346,564.11z" class="st7"></path>
				<path d="M346,605.22c-1.88,0-3.68-1.07-4.53-2.88c-1.17-2.5-0.09-5.48,2.41-6.65l39-18.22
					c2.5-1.17,5.48-0.09,6.65,2.41c1.17,2.5,0.09,5.48-2.41,6.65l-39,18.22C347.43,605.07,346.71,605.22,346,605.22z" class="st7"></path>
				<path d="M366,637.33c-1.88,0-3.69-1.07-4.53-2.89c-1.17-2.5-0.09-5.48,2.42-6.65l19.29-9
					c2.5-1.16,5.48-0.09,6.65,2.42c1.17,2.5,0.09,5.48-2.42,6.65l-19.29,9C367.43,637.18,366.71,637.33,366,637.33z" class="st7"></path>
				<path d="M412.26,699.07l-64.21-50.71c-6.04-4.77-9.51-11.92-9.51-19.62V511.68c0-5.69,1.96-11.26,5.53-15.68
					l52.67-65.38l7.79,6.27l-52.67,65.38c-2.14,2.66-3.32,6-3.32,9.41v117.07c0,4.62,2.08,8.91,5.7,11.77l64.21,50.71L412.26,699.07
					z" class="st7"></path>
			</g>
			<g class="st9">
				<g>
					<path d="M280.49,382.58v39.12c0,1.43,1.44,2.41,2.78,1.89l29.31-11.58c0.77-0.31,1.28-1.05,1.28-1.89v-40.01
						c0-1.46-1.49-2.44-2.83-1.87l-29.31,12.48C280.97,381.04,280.49,381.77,280.49,382.58z" class="st10"></path>
					<path d="M231.25,444.15l29.33-11.59c0.77-0.3,1.28-1.05,1.28-1.88v-38.45c0-1.45-1.48-2.42-2.81-1.86
						l-29.33,12.49c-0.74,0.32-1.23,1.05-1.23,1.86v37.56C228.49,443.7,229.92,444.68,231.25,444.15z" class="st10"></path>
					<path d="M180.23,464.31l29.35-11.6c0.77-0.3,1.27-1.04,1.27-1.87v-36.92c0-1.44-1.47-2.41-2.8-1.85l-29.35,12.49
						c-0.74,0.32-1.22,1.04-1.22,1.85v36.02C177.48,463.86,178.91,464.84,180.23,464.31z" class="st10"></path>
				</g>
			</g>
			<g class="st4">
				<path d="M830.66,689.33c-1.31,0-2.63-0.43-3.74-1.31l-35.28-28.13c-3.79-2.64-8.63-3.25-12.96-1.61
					c-0.06,0.02-0.12,0.04-0.18,0.06l-41.9,14.36c-3.14,1.08-6.55-0.6-7.62-3.73c-1.07-3.13,0.6-6.55,3.73-7.62l41.82-14.33
					c8.11-3.03,17.14-1.84,24.19,3.18c0.09,0.06,0.17,0.13,0.26,0.19l35.42,28.24c2.59,2.07,3.02,5.84,0.95,8.43
					C834.17,688.56,832.42,689.33,830.66,689.33z" class="st11"></path>
				<path d="M830.66,692.33c-2.03,0-4.02-0.7-5.61-1.96l-35.2-28.07c-2.96-2.03-6.74-2.49-10.11-1.21l-0.23,0.08
					l-41.94,14.37c-4.69,1.61-9.82-0.9-11.43-5.59c-1.61-4.7,0.9-9.82,5.6-11.43l41.82-14.33c8.96-3.35,19.05-2.02,26.91,3.58
					c0.12,0.09,0.24,0.18,0.37,0.27l35.44,28.26c3.88,3.09,4.52,8.77,1.43,12.65C835.98,691.1,833.42,692.33,830.66,692.33z" class="st12"></path>
			</g>
			<path d="M992.87,494.24l-193.78,17c-6.5,0.57-13.04-0.46-19.05-2.99L544.87,409c-5.27-2.23-11.11,1.65-11.11,7.37
				v98.82c0,14.84,8.21,28.45,21.33,35.38l89.74,47.35c5.86,3.09,12.39,4.68,19.02,4.62l112.16-0.99
				c8.72-0.08,17.35,1.75,25.29,5.34l79.2,35.88c7.22,3.27,15.25,4.32,23.08,3.02l81.29-13.53c9.65-1.61,16.72-9.95,16.72-19.73
				V502.21C1001.57,497.51,997.55,493.83,992.87,494.24z" class="st13"></path>
			<path d="M717.37,561.13c-2.21,0-4.46-0.46-6.6-1.43l-90.36-40.97c-8.05-3.65-11.61-13.13-7.96-21.18
				c3.65-8.05,13.13-11.61,21.18-7.96l90.36,40.97c8.05,3.65,11.61,13.13,7.96,21.18C729.28,557.64,723.46,561.13,717.37,561.13z" class="st14"></path>
			<path d="M854.7,586.05c-7.38,0-13.82-5.45-14.84-12.98c-1.12-8.21,4.63-15.77,12.83-16.89l74.04-10.1
				c8.21-1.12,15.77,4.63,16.89,12.84c1.12,8.21-4.63,15.77-12.83,16.89l-74.04,10.1C856.06,586,855.38,586.05,854.7,586.05z" class="st14"></path>
		</g>
		<path d="M1039.98,517.05l29.93,40.28c2.56,3.45,3.95,7.63,3.95,11.93v121.19c0,4.03-1.22,7.97-3.5,11.3l-31.32,45.75" class="st15"></path>
		<path d="M1046.08,746.06l-8.25-5.65l28.41-41.49c1.72-2.51,2.62-5.44,2.62-8.47V569.25c0-3.2-1.05-6.38-2.96-8.95
			l-27.63-37.18l8.03-5.96l27.63,37.18c3.18,4.28,4.93,9.58,4.93,14.91v121.19c0,5.06-1.51,9.95-4.37,14.12L1046.08,746.06z" class="st3"></path>
		<path d="M578.3,190.31l109.92,91.48c2.24,1.9,3.53,4.69,3.53,7.63l2,147.85c0,3.19,3.55,5.09,6.21,3.34l39.32-26
			c1.66-1.1,3.87-0.81,5.19,0.67l37.24,41.68c1.39,1.55,3.73,1.78,5.4,0.53l35.46-26.81c1.52-1.15,3.63-1.07,5.05,0.19l48.51,42.66
			c2.65,2.33,6.79,0.34,6.64-3.18l-5.4-146.03c-0.13-2.92-1.52-5.64-3.83-7.44l-125.1-92.49c-2.43-1.79-5.22-3.01-8.19-3.57
			L578.3,190.31z" class="st15"></path>
		<g>
			<path d="M727.68,402.16L522.85,114.39c-1.8-2.52-1.39-5.96,0.94-8c2.33-2.04,5.79-1.98,8.05,0.14l217.5,204.06
				l1.51,4.47l-14.17,85.02L727.68,402.16z" class="st16"></path>
			<path d="M1010.4,195.29c-2.12-2.13-5.42-2.38-7.83-0.58L825.94,325.99l5.96,8.03l2.84-2.11l9.72,75.89l-3.09,4.1
				l7.99,6.01l161.58-214.78C1012.75,200.72,1012.52,197.43,1010.4,195.29z" class="st16"></path>
			<path d="M740.09,303.76l-16.39,89.33c-1.28,6.96,1.22,14.08,6.56,18.71l54.44,47.25c3.4,2.95,8.36,3.27,12.1,0.77
				l49.09-32.73c3.23-2.15,4.92-5.98,4.34-9.82l-14.96-98.54c-0.77-5.09-4.71-9.13-9.79-10.02l-73.84-12.98
				C746.24,294.76,741.08,298.36,740.09,303.76z" class="st12"></path>
		</g>
		<g>
			<path d="M157.38,214.46l0.04,0.66c0.3,5.17,4.81,9.07,9.98,8.63l47.58-4.1c3.39-0.28,6.57-1.93,8.75-4.53
				c2.18-2.59,3.25-6.02,2.94-9.39l-3.97-45.28c-0.44-5.07-4.92-8.82-9.99-8.36l0,0c-5.05,0.45-8.78,4.91-8.34,9.97l3.25,37.01
				c0.09,1.08-0.71,2.04-1.79,2.13l-40.07,3.55C160.8,205.19,157.09,209.49,157.38,214.46z" class="st12"></path>
			<path d="M281.11,160.11c-4.9-1.57-10.15,1.1-11.77,5.98l-15.22,45.67c-1.11,3.27-0.89,6.75,0.63,9.82
				c1.52,3.07,4.14,5.37,7.39,6.46l42.55,14.36c4.96,1.67,10.32-1.02,11.94-6l0.28-0.87c1.59-4.9-1.06-10.17-5.95-11.81
				l-35.07-11.76c-1.03-0.35-1.59-1.46-1.24-2.49l12.51-37.43C288.82,167.07,286.1,161.71,281.11,160.11L281.11,160.11z" class="st12"></path>
			<path d="M228.92,264.33l21.91,33.63c2.82,4.34,8.63,5.56,12.96,2.74l0,0c4.29-2.79,5.55-8.51,2.82-12.85
				l-25.77-40.94c-1.74-2.92-4.63-5.06-7.93-5.88c-3.3-0.82-6.85-0.27-9.75,1.51l-38.28,24.42c-4.39,2.8-5.65,8.64-2.82,13
				l0.15,0.23c2.78,4.28,8.46,5.55,12.8,2.86l31.22-19.33C227.14,263.16,228.33,263.43,228.92,264.33z" class="st12"></path>
		</g>
	</g>
	<g class="st1" id="body_8_">
		<g>
			<polygon points="738.17,1159.86 743.17,1209.87 828.17,1209.87 822.17,1157.86" class="st2"></polygon>
			<path d="M833.78,1214.87h-95.14l-5.99-59.88l93.96-2.24L833.78,1214.87z M747.69,1204.87h74.86l-4.83-41.9
				l-74.04,1.76L747.69,1204.87z" class="st3"></path>
		</g>
		<g>
			<defs>
				<path d="M739.17,1160.86l4.5,49.01h-470.5c0,0-14.15-384.08,257-384.08c112.29,0,191.89,42.5,243.72,101.46
					c84.79,96.46,98.28,233.6,98.28,233.6h-149L739.17,1160.86z" id="SVGID_7_"></path>
			</defs>
			<clipPath id="SVGID_8_">
				<use style="overflow:visible;" xlink:href="#SVGID_7_"></use>
			</clipPath>
			<path d="M872.17,1160.86c0,0-13.49-137.14-98.28-233.6c-51.83-58.96-131.43-101.46-243.72-101.46
				c-129.64,0-194.06,87.79-225.99,179.43c0,0-10.53,31.48-18.57,70.21c-8.04,38.73-9.65,65.79-9.65,65.79
				c-3.81,40.76-2.78,68.65-2.78,68.65h470.5" class="st17"></path>
			<path d="M343.21,1042.47c2.46-0.16,4.57-1.81,5.32-4.17c2.24-6.99,7.97-23.38,19.93-49.76
				c12.48-27.52,27.16-54.53,34.29-65.62c1.12-1.75,3.83-0.84,3.66,1.23c-0.99,12.39-2.85,40.72-3.63,64.56
				c-0.78,23.79-0.26,38.91,0.1,45.58c0.12,2.19,1.98,3.87,4.17,3.78c7.78-0.34,26.99-0.94,55.99-0.26
				c33.56,0.79,60.53,3.07,72.77,4.26c2.02,0.2,2.5,2.94,0.65,3.79c-12.78,5.94-43.02,19.6-77.43,32.3
				c-34.4,12.7-53.49,19.07-60.11,21.22c-1.75,0.57-3.13,1.91-3.77,3.63c-2.67,7.24-10.23,29.85-21.83,81.58
				c-14.71,65.56-14.88,92.91-14.88,92.91l-20.55,139.05c0,0-6.85-117.58-6.75-203.41c0.08-66.56,3.13-100.15,4.49-111.88
				c0.33-2.83-1.37-5.49-4.07-6.38c-5.89-1.94-17.8-6.33-38.56-15.67c-21.52-9.69-33.96-16.34-39.89-19.72
				c-1.59-0.9-1.22-3.29,0.56-3.67c8.57-1.85,27.32-5.72,47.67-8.75C321.34,1044.11,336.35,1042.91,343.21,1042.47z" class="st18"></path>
		</g>
		<path d="M877.39,1156.81c-0.29-2.75-2.75-4.73-5.49-4.45c-0.43,0.04-43.22,4.49-86.84,5.95
			c-81.19,2.74-90.17-7.15-91.15-9.16l-0.23-0.48l-0.33-0.42c-9.67-12.39-22.89-131.91-28.96-204.34c-0.23-2.75-2.65-4.79-5.4-4.57
			c-2.75,0.23-4.8,2.65-4.57,5.4c0.04,0.47,4.02,47.85,9.69,96.84c0.92,7.94,1.81,15.31,2.67,22.16
			c-31.18-37.76-40.37-87.75-40.46-88.29c-0.48-2.72-3.08-4.53-5.79-4.05c-2.72,0.48-4.53,3.07-4.05,5.79
			c0.45,2.52,11.36,62.15,51.37,102.64c0.35,0.35,0.75,0.62,1.16,0.85c7.46,54.64,12.65,68.44,16.14,73.29
			c3.84,7.17,16.57,14.82,73.18,14.81c8.1,0,17.1-0.16,27.1-0.49c43.97-1.48,87.06-5.96,87.5-6
			C875.69,1162.01,877.68,1159.55,877.39,1156.81z" class="st2"></path>
	</g>
</g>
</svg>
